<mxfile host="app.diagrams.net" agent="Mozilla/5.0 (Windows NT 10.0; Win64; x64) AppleWebKit/537.36 (KHTML, like Gecko) Chrome/135.0.0.0 Safari/537.36 Edg/135.0.0.0" version="26.2.13">
  <diagram name="Switch-Tokenizer Modern v4" id="0">
    <mxGraphModel dx="1036" dy="632" grid="1" gridSize="10" guides="1" tooltips="1" connect="1" arrows="1" fold="1" page="1" pageScale="1" pageWidth="827" pageHeight="1169" math="0" shadow="0">
      <root>
        <mxCell id="0" />
        <mxCell id="1" parent="0" />
        <mxCell id="in_en" value="ðŸ˜ŠÂ Hello world" style="rounded=1;fillColor=#FFECB3;strokeColor=#FFB300;shadow=1;html=1;" parent="1" vertex="1">
          <mxGeometry x="45" y="90" width="110" height="30" as="geometry" />
        </mxCell>
        <mxCell id="in_ru" value="ðŸ˜ŠÂ ÐŸÑ€Ð¸Ð²ÐµÑ‚ Ð¼Ð¸Ñ€" style="rounded=1;fillColor=#FFECB3;strokeColor=#FFB300;shadow=1;html=1;" parent="1" vertex="1">
          <mxGeometry x="230" y="90" width="100" height="30" as="geometry" />
        </mxCell>
        <mxCell id="tok_en" value="ðŸ¤–Â EN Tokenizer" style="rounded=1;fillColor=#BBDEFB;strokeColor=#1976D2;shadow=1;html=1;" parent="1" vertex="1">
          <mxGeometry x="50" y="150" width="100" height="40" as="geometry" />
        </mxCell>
        <mxCell id="tok_ru" value="ðŸ¤–Â RU Tokenizer" style="rounded=1;fillColor=#BBDEFB;strokeColor=#1976D2;shadow=1;html=1;" parent="1" vertex="1">
          <mxGeometry x="230" y="150" width="100" height="40" as="geometry" />
        </mxCell>
        <mxCell id="e1" style="endArrow=classic;strokeColor=#555;" parent="1" source="in_en" target="tok_en" edge="1">
          <mxGeometry relative="1" as="geometry" />
        </mxCell>
        <mxCell id="e2" style="endArrow=classic;strokeColor=#555;" parent="1" source="in_ru" target="tok_ru" edge="1">
          <mxGeometry relative="1" as="geometry" />
        </mxCell>
        <mxCell id="shared" value="ðŸ“¦&amp;nbsp;Shared vocabulary ID space" style="rounded=1;fillColor=#C8E6C9;strokeColor=#388E3C;shadow=1;html=1;whiteSpace=wrap;" parent="1" vertex="1">
          <mxGeometry x="10" y="270" width="320" height="40" as="geometry" />
        </mxCell>
        <mxCell id="e3" style="endArrow=classic;strokeColor=#555;entryX=0.291;entryY=0.04;entryDx=0;entryDy=0;entryPerimeter=0;" parent="1" source="tok_en" target="zpH5X3wK1B-fje6_J5Yj-13" edge="1">
          <mxGeometry relative="1" as="geometry">
            <mxPoint x="115" y="210" as="targetPoint" />
          </mxGeometry>
        </mxCell>
        <mxCell id="e4" style="endArrow=classic;strokeColor=#555;entryX=0.3;entryY=0.033;entryDx=0;entryDy=0;entryPerimeter=0;" parent="1" source="tok_ru" target="zpH5X3wK1B-fje6_J5Yj-4" edge="1">
          <mxGeometry relative="1" as="geometry" />
        </mxCell>
        <mxCell id="db" value="ENÂ +Â RU   Wikipedia" style="shape=cylinder;fillColor=#FFCC80;strokeColor=#EF6C00;shadow=1;html=1;whiteSpace=wrap;align=center;verticalAlign=middle;fontSize=14;" parent="1" vertex="1">
          <mxGeometry x="110" y="10" width="160" height="60" as="geometry" />
        </mxCell>
        <mxCell id="d1" style="endArrow=classic;strokeColor=#EF6C00;dashed=1;entryX=0.5;entryY=0;entryDx=0;entryDy=0;" parent="1" source="db" target="in_en" edge="1">
          <mxGeometry relative="1" as="geometry">
            <mxPoint x="30" y="75.5769230769231" as="targetPoint" />
          </mxGeometry>
        </mxCell>
        <mxCell id="d2" style="endArrow=classic;strokeColor=#EF6C00;dashed=1;entryX=0.5;entryY=0;entryDx=0;entryDy=0;" parent="1" source="db" target="in_ru" edge="1">
          <mxGeometry relative="1" as="geometry">
            <mxPoint x="235.55555555555566" y="90" as="targetPoint" />
          </mxGeometry>
        </mxCell>
        <mxCell id="zpH5X3wK1B-fje6_J5Yj-4" value="15 92 43" style="rounded=1;fillColor=#FFECB3;strokeColor=#FFB300;shadow=1;html=1;" parent="1" vertex="1">
          <mxGeometry x="260" y="220" width="70" height="30" as="geometry" />
        </mxCell>
        <mxCell id="zpH5X3wK1B-fje6_J5Yj-5" value="50528" style="rounded=1;fillColor=#FFECB3;strokeColor=#FFB300;shadow=1;html=1;" parent="1" vertex="1">
          <mxGeometry x="190" y="220" width="60" height="30" as="geometry" />
        </mxCell>
        <mxCell id="zpH5X3wK1B-fje6_J5Yj-8" style="endArrow=classic;strokeColor=#555;entryX=0.891;entryY=-0.004;entryDx=0;entryDy=0;exitX=0.5;exitY=1;exitDx=0;exitDy=0;entryPerimeter=0;" parent="1" source="zpH5X3wK1B-fje6_J5Yj-4" target="shared" edge="1">
          <mxGeometry relative="1" as="geometry">
            <mxPoint x="277" y="200" as="sourcePoint" />
            <mxPoint x="304" y="220" as="targetPoint" />
          </mxGeometry>
        </mxCell>
        <mxCell id="zpH5X3wK1B-fje6_J5Yj-10" style="endArrow=classic;strokeColor=#555;exitX=0.5;exitY=1;exitDx=0;exitDy=0;entryX=0.658;entryY=0.035;entryDx=0;entryDy=0;entryPerimeter=0;" parent="1" source="zpH5X3wK1B-fje6_J5Yj-5" target="shared" edge="1">
          <mxGeometry relative="1" as="geometry">
            <mxPoint x="304" y="250" as="sourcePoint" />
            <mxPoint x="220" y="290" as="targetPoint" />
          </mxGeometry>
        </mxCell>
        <mxCell id="zpH5X3wK1B-fje6_J5Yj-11" value="&lt;font style=&quot;font-size: 8px;&quot;&gt;&amp;lt;LANG_RU&amp;gt;&lt;/font&gt;" style="rounded=1;fillColor=#FFECB3;strokeColor=#FFB300;shadow=1;html=1;" parent="1" vertex="1">
          <mxGeometry x="190" y="196" width="60" height="20" as="geometry" />
        </mxCell>
        <mxCell id="zpH5X3wK1B-fje6_J5Yj-13" value="15 51 96" style="rounded=1;fillColor=#FFECB3;strokeColor=#FFB300;shadow=1;html=1;" parent="1" vertex="1">
          <mxGeometry x="80" y="220" width="70" height="30" as="geometry" />
        </mxCell>
        <mxCell id="zpH5X3wK1B-fje6_J5Yj-14" value="50527" style="rounded=1;fillColor=#FFECB3;strokeColor=#FFB300;shadow=1;html=1;" parent="1" vertex="1">
          <mxGeometry x="10" y="220" width="60" height="30" as="geometry" />
        </mxCell>
        <mxCell id="zpH5X3wK1B-fje6_J5Yj-15" value="&lt;font style=&quot;font-size: 8px;&quot;&gt;&amp;lt;LANG_EN&amp;gt;&lt;/font&gt;" style="rounded=1;fillColor=#FFECB3;strokeColor=#FFB300;shadow=1;html=1;" parent="1" vertex="1">
          <mxGeometry x="10" y="196" width="60" height="20" as="geometry" />
        </mxCell>
        <mxCell id="zpH5X3wK1B-fje6_J5Yj-17" style="endArrow=classic;strokeColor=#555;exitX=0.5;exitY=1;exitDx=0;exitDy=0;entryX=0.325;entryY=0.057;entryDx=0;entryDy=0;entryPerimeter=0;" parent="1" source="zpH5X3wK1B-fje6_J5Yj-13" target="shared" edge="1">
          <mxGeometry relative="1" as="geometry">
            <mxPoint x="230" y="260" as="sourcePoint" />
            <mxPoint x="231" y="301" as="targetPoint" />
          </mxGeometry>
        </mxCell>
        <mxCell id="zpH5X3wK1B-fje6_J5Yj-18" style="endArrow=classic;strokeColor=#555;exitX=0.5;exitY=1;exitDx=0;exitDy=0;entryX=0.094;entryY=0.014;entryDx=0;entryDy=0;entryPerimeter=0;" parent="1" source="zpH5X3wK1B-fje6_J5Yj-14" target="shared" edge="1">
          <mxGeometry relative="1" as="geometry">
            <mxPoint x="230" y="260" as="sourcePoint" />
            <mxPoint x="231" y="301" as="targetPoint" />
          </mxGeometry>
        </mxCell>
        <mxCell id="zpH5X3wK1B-fje6_J5Yj-19" value="" style="group;verticalAlign=bottom;align=right;" parent="1" vertex="1" connectable="0">
          <mxGeometry x="10" y="330" width="330" height="40" as="geometry" />
        </mxCell>
        <mxCell id="llm" value="ðŸ§ &amp;nbsp;LLM Processing" style="rounded=1;fillColor=#E1BEE7;strokeColor=#6A1B9A;shadow=1;html=1;whiteSpace=wrap;" parent="zpH5X3wK1B-fje6_J5Yj-19" vertex="1">
          <mxGeometry width="320" height="40" as="geometry" />
        </mxCell>
        <mxCell id="zpH5X3wK1B-fje6_J5Yj-20" value="&lt;blockquote style=&quot;margin: 0 0 0 40px; border: none; padding: 0px;&quot;&gt;&lt;font&gt;ðŸ”¥&lt;/font&gt;&lt;/blockquote&gt;" style="text;html=1;align=right;verticalAlign=top;resizable=0;points=[];autosize=1;strokeColor=none;fillColor=none;" parent="zpH5X3wK1B-fje6_J5Yj-19" vertex="1">
          <mxGeometry x="240" width="80" height="30" as="geometry" />
        </mxCell>
        <mxCell id="zpH5X3wK1B-fje6_J5Yj-22" style="endArrow=classic;strokeColor=#555;exitX=0.5;exitY=1;exitDx=0;exitDy=0;entryX=0.5;entryY=0;entryDx=0;entryDy=0;" parent="1" source="shared" target="llm" edge="1">
          <mxGeometry relative="1" as="geometry">
            <mxPoint x="230" y="260" as="sourcePoint" />
            <mxPoint x="231" y="281" as="targetPoint" />
          </mxGeometry>
        </mxCell>
      </root>
    </mxGraphModel>
  </diagram>
</mxfile>
